<svg width="22" height="17" viewBox="0 0 22 17" fill="none" xmlns="http://www.w3.org/2000/svg">
<path d="M0.984273 0.0567112C0.601739 0.159633 0.283677 0.425513 0.11605 0.790028L0.0171925 1.00445L0.00859627 7.07254L0 13.1406L0.0859627 12.982C0.133242 12.8919 0.786559 11.5325 1.53873 9.95863C2.29091 8.3805 2.98291 6.9396 3.07317 6.75091C3.38263 6.12051 3.89411 5.74313 4.56032 5.65736C4.74514 5.63163 7.64638 5.61448 11.6995 5.61448H18.525L18.5121 4.5724C18.4992 3.58178 18.4949 3.52603 18.4003 3.34163C18.2585 3.07146 17.9877 2.80558 17.7298 2.68979L17.5106 2.59116L13.3199 2.57829L9.12924 2.56543L8.35127 1.48475C7.79682 0.717125 7.51744 0.365476 7.3799 0.266843C7.01026 0.000961304 6.97587 -0.00332642 3.92849 0.000961304C1.89978 0.000961304 1.12611 0.018115 0.984273 0.0567112Z" fill="#FF11B8"/>
<path d="M5.32572 6.90082C4.78416 6.98229 4.32426 7.26104 4.04488 7.67273C3.97181 7.77994 3.03912 9.69256 1.97318 11.9268C0.120684 15.8035 0.0347214 15.9965 0.0777027 16.1295C0.172262 16.4082 0.434448 16.6912 0.743913 16.8499L1.04048 17H9.19405H17.3433L17.67 16.837C18.2502 16.554 18.1943 16.6441 20.1543 12.733C21.2675 10.5116 21.9208 9.15223 21.9552 9.01071C22.024 8.68479 22.0154 8.44893 21.9165 8.13587C21.7489 7.59125 21.3191 7.16241 20.7302 6.95656C20.5325 6.88795 20.0039 6.87937 13.0409 6.87508C8.92756 6.8708 5.45467 6.88366 5.32572 6.90082Z" fill="#FF11B8"/>
</svg>
