<svg width="40" height="40" viewBox="0 0 40 40" fill="none" xmlns="http://www.w3.org/2000/svg">
<path d="M30.4167 17.9167H22.0833V9.58333C22.0833 9.0308 21.8638 8.5009 21.4731 8.11019C21.0824 7.71949 20.5525 7.5 20 7.5C19.4475 7.5 18.9176 7.71949 18.5269 8.11019C18.1362 8.5009 17.9167 9.0308 17.9167 9.58333V17.9167H9.58333C9.0308 17.9167 8.5009 18.1362 8.11019 18.5269C7.71949 18.9176 7.5 19.4475 7.5 20C7.5 20.5525 7.71949 21.0824 8.11019 21.4731C8.5009 21.8638 9.0308 22.0833 9.58333 22.0833H17.9167V30.4167C17.9167 30.9692 18.1362 31.4991 18.5269 31.8898C18.9176 32.2805 19.4475 32.5 20 32.5C20.5525 32.5 21.0824 32.2805 21.4731 31.8898C21.8638 31.4991 22.0833 30.9692 22.0833 30.4167V22.0833H30.4167C30.9692 22.0833 31.4991 21.8638 31.8898 21.4731C32.2805 21.0824 32.5 20.5525 32.5 20C32.5 19.4475 32.2805 18.9176 31.8898 18.5269C31.4991 18.1362 30.9692 17.9167 30.4167 17.9167Z" fill="white"/>
</svg>
