<svg width="32" height="33" viewBox="0 0 32 33" fill="none" xmlns="http://www.w3.org/2000/svg">
<path d="M18.668 9.33333V0.613333C19.9014 1.07911 21.0217 1.80175 21.9546 2.73333L26.6 7.38133C27.5326 8.31317 28.2558 9.43319 28.7213 10.6667H20.0013C19.6477 10.6667 19.3085 10.5262 19.0585 10.2761C18.8084 10.0261 18.668 9.68696 18.668 9.33333ZM29.3346 13.98V25.3333C29.3325 27.1008 28.6295 28.7953 27.3797 30.045C26.1299 31.2948 24.4354 31.9979 22.668 32H9.33464C7.56718 31.9979 5.87271 31.2948 4.62293 30.045C3.37314 28.7953 2.67009 27.1008 2.66797 25.3333V6.66667C2.67009 4.89921 3.37314 3.20474 4.62293 1.95496C5.87271 0.705176 7.56718 0.00211714 9.33464 0L15.3546 0C15.572 0 15.7866 0.0173333 16.0013 0.032V9.33333C16.0013 10.3942 16.4227 11.4116 17.1729 12.1618C17.923 12.9119 18.9404 13.3333 20.0013 13.3333H29.3026C29.3173 13.548 29.3346 13.7627 29.3346 13.98ZM18.668 25.3333C18.668 24.9797 18.5275 24.6406 18.2774 24.3905C18.0274 24.1405 17.6883 24 17.3346 24H10.668C10.3143 24 9.97521 24.1405 9.72516 24.3905C9.47511 24.6406 9.33464 24.9797 9.33464 25.3333C9.33464 25.687 9.47511 26.0261 9.72516 26.2761C9.97521 26.5262 10.3143 26.6667 10.668 26.6667H17.3346C17.6883 26.6667 18.0274 26.5262 18.2774 26.2761C18.5275 26.0261 18.668 25.687 18.668 25.3333ZM22.668 20C22.668 19.6464 22.5275 19.3072 22.2774 19.0572C22.0274 18.8071 21.6883 18.6667 21.3346 18.6667H10.668C10.3143 18.6667 9.97521 18.8071 9.72516 19.0572C9.47511 19.3072 9.33464 19.6464 9.33464 20C9.33464 20.3536 9.47511 20.6928 9.72516 20.9428C9.97521 21.1929 10.3143 21.3333 10.668 21.3333H21.3346C21.6883 21.3333 22.0274 21.1929 22.2774 20.9428C22.5275 20.6928 22.668 20.3536 22.668 20Z" fill="white"/>
<circle cx="26" cy="27" r="6" fill="#FF11B8"/>
<line x1="24" y1="27" x2="28" y2="27" stroke="white" stroke-width="2" stroke-linecap="round"/>
<line x1="26" y1="29" x2="26" y2="25" stroke="white" stroke-width="2" stroke-linecap="round"/>
</svg>
