<svg width="33" height="33" viewBox="0 0 33 33" fill="none" xmlns="http://www.w3.org/2000/svg">
<g clip-path="url(#clip0_457_5283)">
<path d="M10.1452 32.8966C11.7114 32.6839 13.1487 32.0781 14.4055 31.0919C15.1596 30.5054 20.5092 25.1042 20.6575 24.782C20.838 24.3952 20.8251 23.7056 20.6317 23.3318C20.1676 22.4294 19.1815 22.062 18.3049 22.4681C18.0085 22.6035 17.4928 23.0869 15.1467 25.4201C13.6063 26.954 12.1948 28.314 12.0208 28.4365C10.403 29.5837 8.22448 29.7255 6.44557 28.8038C3.61608 27.3408 2.72663 23.7056 4.53131 21.0115C4.63444 20.8503 5.9944 19.4452 7.54772 17.8855C9.9067 15.5136 10.3965 14.9915 10.5319 14.6951C10.938 13.8185 10.5706 12.8324 9.66823 12.3683C9.2944 12.1749 8.60475 12.162 8.21803 12.3425C7.89577 12.4908 2.41081 17.9242 1.87584 18.6267C0.844595 19.9738 0.264517 21.3982 0.0711575 23.0417C-0.347788 26.5351 1.36022 29.964 4.4153 31.7622C6.11042 32.7613 8.16003 33.1673 10.1452 32.8966Z" fill="white"/>
<path d="M12.1176 23.1899C12.4463 23.0674 12.8523 22.6807 17.7637 17.7629C22.8103 12.7227 23.0682 12.452 23.1971 12.0975C23.4613 11.3756 23.326 10.7504 22.791 10.209C22.2496 9.67403 21.6244 9.53868 20.9025 9.80294C20.548 9.93184 20.2773 10.1897 15.2371 15.2363C10.1904 20.2766 9.93261 20.5473 9.8037 20.9018C9.53944 21.6236 9.6748 22.2488 10.2098 22.7902C10.7447 23.3252 11.3957 23.4606 12.1176 23.1899Z" fill="white"/>
<path d="M24.5062 20.754C24.6416 20.7218 24.8607 20.6186 24.9896 20.5349C25.3248 20.3222 30.8549 14.7534 31.2093 14.2765C32.1697 12.9809 32.7433 11.5436 32.9302 9.95809C33.2461 7.30263 32.3437 4.64716 30.4617 2.72001C27.297 -0.54132 22.1601 -0.895812 18.5959 1.9079C17.8353 2.50087 12.4922 7.8956 12.3439 8.21786C12.1635 8.60458 12.1763 9.29423 12.3697 9.66806C12.8338 10.5704 13.8199 10.9378 14.6965 10.5317C14.9929 10.3964 15.5086 9.91298 17.8547 7.57977C19.3951 6.04579 20.8002 4.68583 20.9806 4.56337C22.5984 3.4161 24.7769 3.27431 26.5687 4.20243C29.3853 5.65907 30.2748 9.30067 28.4701 11.9884C28.367 12.1495 27.007 13.5546 25.4537 15.1143C22.3664 18.2145 22.3019 18.2919 22.3019 18.9944C22.3019 20.1481 23.4041 21.0311 24.5062 20.754Z" fill="white"/>
<circle cx="21" cy="26" r="7" fill="#FBBD13"/>
<line x1="18" y1="26.333" x2="24" y2="26.333" stroke="white" stroke-width="2" stroke-linecap="round"/>
<line x1="21" y1="30" x2="21" y2="23" stroke="white" stroke-width="2" stroke-linecap="round"/>
</g>
<defs>
<clipPath id="clip0_457_5283">
<rect width="33" height="33" fill="white" transform="matrix(-1 0 0 -1 33 33)"/>
</clipPath>
</defs>
</svg>
