<svg width="25" height="25" viewBox="0 0 25 25" fill="none" xmlns="http://www.w3.org/2000/svg">
<path d="M19.9711 4.43945C19.9027 4.46387 19.7709 4.51758 19.6781 4.56152C19.5854 4.61035 17.227 6.9248 14.4389 9.70801L9.37539 14.7715L7.43203 12.833C6.10391 11.5098 5.4252 10.8652 5.27383 10.7871C4.9418 10.6211 4.40957 10.6016 4.02871 10.748C3.77969 10.8408 3.65274 10.9434 3.14493 11.4463C2.4418 12.1543 2.3295 12.3447 2.32461 12.8916C2.31485 13.5947 2.13418 13.375 5.63516 16.8906C7.76407 19.0293 8.82852 20.0596 8.96036 20.123C9.20938 20.2402 9.54141 20.2402 9.79043 20.123C9.92715 20.0596 11.9096 18.1064 16.2406 13.7656C23.223 6.77344 22.6859 7.36426 22.6762 6.6416C22.6713 6.09473 22.559 5.9043 21.8559 5.19629C21.3578 4.69824 21.2211 4.59082 20.9818 4.50293C20.6938 4.39551 20.2201 4.36621 19.9711 4.43945Z" fill="white"/>
</svg>
