<svg width="14" height="14" viewBox="0 0 14 14" fill="none" xmlns="http://www.w3.org/2000/svg">
<g clip-path="url(#clip0_579_5260)">
<path d="M0.742173 0.0294125C0.457798 0.0841 0.211704 0.278241 0.0886575 0.540741C0.0285012 0.669256 0.0148294 0.734881 0.0148294 0.91535C0.0148294 1.33918 -0.171108 1.12863 2.95428 4.25129L5.716 7.01301L2.92967 9.80207C0.668345 12.0689 0.135142 12.6157 0.0831887 12.7279C-0.00978002 12.922 -0.0125144 13.272 0.07772 13.4661C0.157017 13.6384 0.332017 13.8189 0.507017 13.9118C0.703892 14.013 1.01835 14.0267 1.2453 13.9446C1.40389 13.8845 1.50233 13.7915 4.20663 11.09L7.00116 8.29816L9.78475 11.0763C12.0187 13.3075 12.593 13.8681 12.7023 13.92C12.8172 13.9747 12.8801 13.9857 13.0988 13.9857C13.3258 13.9857 13.375 13.9747 13.4953 13.9118C13.6648 13.8243 13.848 13.6302 13.9273 13.4579C14.0148 13.272 14.0094 12.9193 13.9191 12.7279C13.8672 12.6157 13.334 12.0689 11.0726 9.80207L8.28631 7.01301L11.048 4.25129C14.1734 1.12863 13.9875 1.33918 13.9875 0.91535C13.9875 0.737616 13.9738 0.669256 13.9164 0.546209C13.6949 0.0758968 13.1398 -0.115509 12.675 0.114178C12.6039 0.149725 11.6058 1.1259 9.78475 2.94699L7.00116 5.72785L4.2203 2.94699C2.39647 1.1259 1.39842 0.149725 1.32733 0.114178C1.23436 0.0676937 0.930845 -0.00886879 0.878892 0.00206871C0.870689 0.00480309 0.807798 0.0157406 0.742173 0.0294125Z" fill="#AAAAAA"/>
</g>
<defs>
<clipPath id="clip0_579_5260">
<rect width="14" height="14" fill="white"/>
</clipPath>
</defs>
</svg>
