<svg width="16" height="16" viewBox="0 0 16 16" fill="none" xmlns="http://www.w3.org/2000/svg">
<g clip-path="url(#clip0_507_5339)">
<path d="M1.23531 0.136612C0.704063 0.264737 0.247813 0.724112 0.125938 1.24911C0.0384385 1.62411 0.104063 2.06474 0.294688 2.38661C0.338438 2.45849 1.60406 3.74599 3.10719 5.24911L5.84469 7.98349L3.06969 10.7647C0.0821884 13.7585 0.163438 13.6679 0.0478135 14.1085C-0.0428116 14.4679 0.00718845 14.8397 0.194688 15.1929C0.488438 15.746 1.17906 16.0147 1.91031 15.8616C2.34781 15.7679 2.23219 15.871 5.20406 12.9022C6.71656 11.3929 7.96969 10.1554 7.98531 10.1554C8.00094 10.1554 9.25406 11.3897 10.7666 12.9022C13.3166 15.4491 13.5322 15.6554 13.7197 15.7429C14.3666 16.0429 15.1478 15.921 15.5947 15.4491C16.0166 15.0054 16.1134 14.3241 15.8384 13.7522C15.7478 13.5616 15.5291 13.3366 12.9416 10.7585L10.1416 7.97411L12.8634 5.24286C14.5603 3.54286 15.6166 2.46161 15.6666 2.37411C15.8041 2.13036 15.8541 1.89911 15.8384 1.56474C15.8197 1.20536 15.7447 0.986612 15.5478 0.724112C15.1634 0.214737 14.4666 -0.000887958 13.8603 0.205362C13.5134 0.320987 13.3572 0.467861 10.6447 3.18349L7.98844 5.83974L5.25406 3.11474C2.31344 0.189736 2.38531 0.252237 1.95406 0.139737C1.73844 0.083487 1.45406 0.083487 1.23531 0.136612Z" fill="#FF11B8"/>
</g>
<defs>
<clipPath id="clip0_507_5339">
<rect width="16" height="16" fill="white"/>
</clipPath>
</defs>
</svg>
