<svg width="20" height="20" viewBox="0 0 20 20" fill="none" xmlns="http://www.w3.org/2000/svg">
<g clip-path="url(#clip0_464_5824)">
<path d="M7.57617 0.992188C9.04914 -0.00239959 10.9509 -0.00239959 12.4238 0.992188L15.6934 3.19922L16.083 3.46191V2.08398C16.083 1.53145 16.5311 1.08416 17.083 1.08398C17.635 1.08398 18.083 1.53134 18.083 2.08398V4.82227L18.1748 4.89746C19.1679 5.71513 19.75 6.93608 19.75 8.23926V15.417C19.75 17.8063 17.8055 19.7508 15.417 19.751H12.917C12.3651 19.751 11.9172 19.3035 11.917 18.751V12.084C11.917 11.7156 11.6169 11.417 11.25 11.417H8.75C8.3831 11.417 8.08302 11.7156 8.08301 12.084V18.751C8.08285 19.3035 7.63495 19.751 7.08301 19.751H4.58301C2.19453 19.7508 0.25 17.8063 0.25 15.417V8.23926C0.25 6.79653 0.964049 5.45432 2.16016 4.64746L7.57617 0.992188ZM11.3057 2.64941C10.5129 2.11498 9.48811 2.11498 8.69531 2.64941L3.27832 6.30469C2.63474 6.73945 2.25 7.46199 2.25 8.23926V15.417C2.25 16.7032 3.29585 17.7508 4.58301 17.751H6.08301V12.084C6.08302 10.6137 7.27975 9.41699 8.75 9.41699H11.25C12.7203 9.41699 13.917 10.6137 13.917 12.084V17.751H15.417C16.7041 17.7508 17.75 16.7032 17.75 15.417L17.751 8.23926C17.751 7.46267 17.3655 6.73857 16.7227 6.30469L11.3057 2.64941Z" fill="#AAAAAA" stroke="white" stroke-width="0.5"/>
</g>
<defs>
<clipPath id="clip0_464_5824">
<rect width="20" height="20" fill="white"/>
</clipPath>
</defs>
</svg>
