<svg width="26" height="15" viewBox="0 0 26 15" fill="none" xmlns="http://www.w3.org/2000/svg">
<path d="M25 8.36328C25.5523 8.36328 26 7.91557 26 7.36328C26 6.811 25.5523 6.36328 25 6.36328L25 7.36328L25 8.36328ZM0.292893 6.65617C-0.097631 7.0467 -0.0976311 7.67986 0.292893 8.07039L6.65685 14.4343C7.04738 14.8249 7.68054 14.8249 8.07107 14.4343C8.46159 14.0438 8.46159 13.4107 8.07107 13.0201L2.41421 7.36328L8.07107 1.70643C8.46159 1.3159 8.46159 0.682736 8.07107 0.292212C7.68054 -0.0983124 7.04738 -0.0983124 6.65685 0.292212L0.292893 6.65617ZM25 7.36328L25 6.36328L1 6.36328L1 7.36328L1 8.36328L25 8.36328L25 7.36328Z" fill="black"/>
</svg>
