<svg width="20" height="20" viewBox="0 0 20 20" fill="none" xmlns="http://www.w3.org/2000/svg">
<g clip-path="url(#clip0_501_5294)">
<path d="M6.14919 19.9387C7.09841 19.8098 7.9695 19.4426 8.73122 18.845C9.18825 18.4895 12.4304 15.216 12.5203 15.0207C12.6297 14.7864 12.6218 14.3684 12.5047 14.1418C12.2234 13.595 11.6257 13.3723 11.0945 13.6184C10.9148 13.7004 10.6023 13.9934 9.18044 15.4075C8.24684 16.3371 7.39137 17.1614 7.28591 17.2356C6.30544 17.9309 4.98512 18.0168 3.907 17.4582C2.19215 16.5715 1.65309 14.3684 2.74684 12.7356C2.80934 12.6379 3.63356 11.7864 4.57497 10.841C6.00465 9.40355 6.30153 9.08714 6.38356 8.90745C6.62966 8.3762 6.407 7.77855 5.86012 7.4973C5.63356 7.38011 5.21559 7.3723 4.98122 7.48167C4.7859 7.57152 1.46169 10.8645 1.13747 11.2903C0.512466 12.1067 0.160904 12.97 0.0437164 13.966C-0.21019 16.0832 0.824967 18.1614 2.67653 19.2512C3.70387 19.8567 4.94606 20.1028 6.14919 19.9387Z" fill="#FF11B8"/>
<path d="M7.34635 14.056C7.54557 13.9818 7.79166 13.7474 10.7682 10.7669C13.8268 7.71224 13.9831 7.54818 14.0612 7.33334C14.2213 6.89584 14.1393 6.51693 13.8151 6.18881C13.487 5.86459 13.1081 5.78256 12.6706 5.94271C12.4557 6.02084 12.2917 6.17709 9.23697 9.23568C6.17838 12.2904 6.02213 12.4544 5.94401 12.6693C5.78385 13.1068 5.86588 13.4857 6.1901 13.8138C6.51432 14.138 6.90885 14.2201 7.34635 14.056Z" fill="#FF11B8"/>
<path d="M14.8531 12.5787C14.9351 12.5591 15.0679 12.4966 15.1461 12.4458C15.3492 12.3169 18.7007 8.94193 18.9156 8.65287C19.4976 7.86771 19.8453 6.99662 19.9586 6.03568C20.15 4.42631 19.6031 2.81693 18.4625 1.64896C16.5445 -0.327599 13.4312 -0.542443 11.2711 1.15678C10.8101 1.51615 7.57184 4.78568 7.48199 4.981C7.37262 5.21537 7.38043 5.63334 7.49762 5.8599C7.77887 6.40678 8.37652 6.62943 8.90777 6.38334C9.08746 6.30131 9.39996 6.00834 10.8218 4.59428C11.7554 3.66459 12.607 2.84037 12.7164 2.76615C13.6968 2.07084 15.0171 1.9849 16.1031 2.5474C17.8101 3.43021 18.3492 5.63725 17.2554 7.26615C17.1929 7.36381 16.3687 8.21537 15.4273 9.16068C13.5562 11.0396 13.5171 11.0865 13.5171 11.5122C13.5171 12.2115 14.1851 12.7466 14.8531 12.5787Z" fill="#FF11B8"/>
</g>
<defs>
<clipPath id="clip0_501_5294">
<rect width="20" height="20" fill="white" transform="matrix(-1 0 0 -1 20 20)"/>
</clipPath>
</defs>
</svg>
