<svg width="32" height="32" viewBox="0 0 32 32" fill="none" xmlns="http://www.w3.org/2000/svg">
<rect width="32" height="32" rx="8" fill="url(#paint0_linear_588_5290)"/>
<path d="M16 22V9" stroke="white" stroke-width="2" stroke-linecap="round" stroke-linejoin="round"/>
<path d="M19 17C18.1348 16.7471 17.3748 16.2206 16.834 15.4995C16.2932 14.7784 16.0005 13.9014 16 13C15.9995 13.9014 15.7068 14.7784 15.166 15.4995C14.6252 16.2206 13.8652 16.7471 13 17" stroke="white" stroke-width="2" stroke-linecap="round" stroke-linejoin="round"/>
<path d="M21.598 10.5001C21.8281 10.1016 21.9635 9.65551 21.9936 9.19633C22.0237 8.73714 21.9478 8.27718 21.7717 7.85203C21.5956 7.42687 21.324 7.04793 20.9781 6.74451C20.6321 6.44109 20.221 6.22133 19.7765 6.10223C19.332 5.98312 18.866 5.96787 18.4147 6.05765C17.9634 6.14743 17.5387 6.33983 17.1737 6.61998C16.8086 6.90012 16.5129 7.2605 16.3093 7.67322C16.1058 8.08595 16 8.53996 16 9.00013C16 8.53996 15.8942 8.08595 15.6907 7.67322C15.4871 7.2605 15.1914 6.90012 14.8263 6.61998C14.4613 6.33983 14.0366 6.14743 13.5853 6.05765C13.134 5.96787 12.668 5.98312 12.2235 6.10223C11.779 6.22133 11.3679 6.44109 11.0219 6.74451C10.676 7.04793 10.4044 7.42687 10.2283 7.85203C10.0522 8.27718 9.97632 8.73714 10.0064 9.19633C10.0365 9.65551 10.1719 10.1016 10.402 10.5001" stroke="white" stroke-width="2" stroke-linecap="round" stroke-linejoin="round"/>
<path d="M21.9961 9.125C22.5839 9.27614 23.1296 9.55905 23.5919 9.95231C24.0541 10.3456 24.4209 10.8389 24.6643 11.3948C24.9076 11.9508 25.0213 12.5549 24.9967 13.1613C24.9721 13.7677 24.8098 14.3606 24.5221 14.895" stroke="white" stroke-width="2" stroke-linecap="round" stroke-linejoin="round"/>
<path d="M22 21.9992C22.8805 21.9991 23.7364 21.7086 24.4349 21.1725C25.1335 20.6365 25.6356 19.8849 25.8635 19.0344C26.0914 18.1839 26.0323 17.282 25.6954 16.4685C25.3585 15.655 24.7625 14.9754 24 14.5352" stroke="white" stroke-width="2" stroke-linecap="round" stroke-linejoin="round"/>
<path d="M23.967 21.4824C24.0371 22.0247 23.9953 22.5755 23.8441 23.1009C23.693 23.6264 23.4357 24.1153 23.0882 24.5374C22.7407 24.9595 22.3104 25.3059 21.8238 25.5552C21.3372 25.8045 20.8046 25.9514 20.259 25.9868C19.7134 26.0222 19.1664 25.9453 18.6516 25.761C18.1369 25.5767 17.6654 25.2889 17.2662 24.9152C16.8671 24.5415 16.5488 24.09 16.331 23.5885C16.1132 23.087 16.0006 22.5462 16 21.9994C15.9994 22.5462 15.8867 23.087 15.669 23.5885C15.4512 24.09 15.1329 24.5415 14.7338 24.9152C14.3346 25.2889 13.8631 25.5767 13.3484 25.761C12.8336 25.9453 12.2866 26.0222 11.741 25.9868C11.1954 25.9514 10.6628 25.8045 10.1762 25.5552C9.68961 25.3059 9.25927 24.9595 8.91178 24.5374C8.56429 24.1153 8.30703 23.6264 8.15589 23.1009C8.00474 22.5755 7.96291 22.0247 8.033 21.4824" stroke="white" stroke-width="2" stroke-linecap="round" stroke-linejoin="round"/>
<path d="M9.99983 21.9992C9.11932 21.9991 8.26343 21.7086 7.56489 21.1725C6.86635 20.6365 6.3642 19.8849 6.1363 19.0344C5.90841 18.1839 5.96751 17.282 6.30444 16.4685C6.64137 15.655 7.23731 14.9754 7.99983 14.5352" stroke="white" stroke-width="2" stroke-linecap="round" stroke-linejoin="round"/>
<path d="M10.0039 9.125C9.41611 9.27614 8.87041 9.55905 8.40814 9.95231C7.94587 10.3456 7.57915 10.8389 7.33575 11.3948C7.09235 11.9508 6.97867 12.5549 7.0033 13.1613C7.02792 13.7677 7.19023 14.3606 7.47791 14.895" stroke="white" stroke-width="2" stroke-linecap="round" stroke-linejoin="round"/>
<defs>
<linearGradient id="paint0_linear_588_5290" x1="32" y1="32" x2="4.5" y2="4.5" gradientUnits="userSpaceOnUse">
<stop stop-color="#FF11B8"/>
<stop offset="1" stop-color="#2C044E"/>
</linearGradient>
</defs>
</svg>
