<svg width="14" height="14" viewBox="0 0 14 14" fill="none" xmlns="http://www.w3.org/2000/svg">
<g clip-path="url(#clip0_501_5321)">
<path d="M11.1816 0.0792966C10.8426 0.188672 10.7551 0.254297 10.1152 0.891406L9.5 1.50391L10.9957 2.99961L12.4941 4.49805L13.0711 3.92383C13.6863 3.31133 13.8285 3.13086 13.9187 2.84648C14.0418 2.44727 14.0145 2.08086 13.8285 1.69531C13.7246 1.47656 13.6863 1.43008 13.1258 0.872265C12.4969 0.243359 12.3875 0.164062 12.0293 0.0683591C11.8187 0.0109372 11.3703 0.0164059 11.1816 0.0792966Z" fill="#FF11B8"/>
<path d="M4.76441 6.24342L0.876129 10.1317L0.43316 11.909C0.107769 13.2133 -0.0070745 13.7083 0.00933175 13.763C0.0339411 13.8614 0.135113 13.9653 0.230816 13.9899C0.304644 14.009 3.71988 13.1805 3.85386 13.1094C3.89214 13.0903 5.66128 11.3348 7.78589 9.21022L11.6468 5.34655L10.1484 3.84811L8.65269 2.35241L4.76441 6.24342Z" fill="#FF11B8"/>
</g>
<defs>
<clipPath id="clip0_501_5321">
<rect width="14" height="14" fill="white"/>
</clipPath>
</defs>
</svg>
