<svg width="32" height="32" viewBox="0 0 32 32" fill="none" xmlns="http://www.w3.org/2000/svg">
<path d="M24.3333 14.3333H17.6667V7.66667C17.6667 7.22464 17.4911 6.80072 17.1785 6.48816C16.866 6.1756 16.442 6 16 6C15.558 6 15.134 6.1756 14.8215 6.48816C14.5089 6.80072 14.3333 7.22464 14.3333 7.66667V14.3333H7.66667C7.22464 14.3333 6.80072 14.5089 6.48816 14.8215C6.1756 15.134 6 15.558 6 16C6 16.442 6.1756 16.866 6.48816 17.1785C6.80072 17.4911 7.22464 17.6667 7.66667 17.6667H14.3333V24.3333C14.3333 24.7754 14.5089 25.1993 14.8215 25.5118C15.134 25.8244 15.558 26 16 26C16.442 26 16.866 25.8244 17.1785 25.5118C17.4911 25.1993 17.6667 24.7754 17.6667 24.3333V17.6667H24.3333C24.7754 17.6667 25.1993 17.4911 25.5118 17.1785C25.8244 16.866 26 16.442 26 16C26 15.558 25.8244 15.134 25.5118 14.8215C25.1993 14.5089 24.7754 14.3333 24.3333 14.3333Z" fill="#FF11B8"/>
</svg>
