<svg width="683" height="683" viewBox="0 0 683 683" fill="none" xmlns="http://www.w3.org/2000/svg">
<g clip-path="url(#clip0_497_5261)">
<path d="M506.001 178.533C499.735 181.466 494.135 187.066 492.135 192.399C490.135 197.733 490.268 208.666 492.535 213.733C493.601 216.133 515.735 239.333 542.535 265.999L590.668 313.999L304.401 314.666L18.0013 315.333L12.9346 318.533C10.1346 320.266 6.26797 324.133 4.26797 327.066C1.2013 331.599 0.667969 333.999 0.667969 341.333C0.667969 348.666 1.2013 351.066 4.26797 355.599C6.26797 358.533 10.1346 362.399 12.9346 364.133L18.0013 367.333L304.401 367.999L590.668 368.666L542.535 416.666C515.735 443.333 493.601 466.533 492.535 468.933C490.268 473.999 490.135 484.933 492.135 490.266C496.935 503.199 514.401 510.133 526.935 504.266C532.668 501.599 674.135 362.666 678.935 354.933C683.468 347.599 683.335 334.399 678.535 327.199C672.935 318.799 532.668 181.066 526.935 178.399C520.535 175.333 512.668 175.466 506.001 178.533Z" fill="#FF11B8"/>
</g>
<defs>
<clipPath id="clip0_497_5261">
<rect width="682.667" height="682.667" fill="white"/>
</clipPath>
</defs>
</svg>
