<svg width="15" height="15" viewBox="0 0 15 15" fill="none" xmlns="http://www.w3.org/2000/svg">
<g clip-path="url(#clip0_464_6934)">
<path d="M5.68501 0.119656C4.24068 0.192898 2.84028 0.82864 1.77681 1.89212C0.91255 2.75637 0.323683 3.86673 0.106886 5.04153C-0.385301 7.70755 0.91841 10.3355 3.34126 11.5689C4.67134 12.2456 6.25337 12.4009 7.70357 11.9937C8.22212 11.8472 8.9604 11.5161 9.3354 11.2554L9.50825 11.1382L11.2807 12.9019C12.8803 14.4986 13.0708 14.6773 13.2436 14.7622C14.1372 15.1929 15.1508 14.4429 14.975 13.482C14.9047 13.1011 14.9077 13.104 12.9829 11.1792L11.2016 9.39798L11.4418 8.9263C11.8461 8.12942 12.0307 7.46438 12.104 6.57669C12.2329 4.96536 11.6528 3.29837 10.5366 2.08548C9.97114 1.46731 9.35298 1.01614 8.60005 0.667507C8.14888 0.459499 7.98189 0.397976 7.56294 0.292507C6.93599 0.134304 6.38814 0.0844994 5.68501 0.119656ZM6.72505 2.12356C8.35103 2.39016 9.66939 3.62356 10.0444 5.22903C10.3608 6.57962 9.97114 7.99173 9.01021 8.99075C8.21919 9.81106 7.18794 10.2534 6.06001 10.2534C4.9731 10.2534 3.94771 9.82571 3.16841 9.04934C2.59419 8.4722 2.22212 7.78079 2.04634 6.96341C1.95552 6.53567 1.95552 5.79446 2.04927 5.3638C2.2895 4.2388 2.91646 3.32473 3.86861 2.7095C4.35493 2.39309 4.87642 2.20559 5.53853 2.10012C5.73189 2.0679 6.48482 2.08255 6.72505 2.12356Z" fill="#FF11B8"/>
</g>
<defs>
<clipPath id="clip0_464_6934">
<rect width="15" height="15" fill="white"/>
</clipPath>
</defs>
</svg>
